<?xml version="1.0" encoding="UTF-8"?>
<svg version="1.1" xmlns="http://www.w3.org/2000/svg" width="500" height="500">
<path d="M0 0 C165 0 330 0 500 0 C500 165 500 330 500 500 C335 500 170 500 0 500 C0 335 0 170 0 0 Z " fill="#FEFEFE" transform="translate(0,0)"/>
<path d="M0 0 C1.07765625 0.03609375 2.1553125 0.0721875 3.265625 0.109375 C4.49539062 0.17898437 4.49539062 0.17898437 5.75 0.25 C5.75 2.89 5.75 5.53 5.75 8.25 C3.11 8.25 0.47 8.25 -2.25 8.25 C-2.25 28.71 -2.25 49.17 -2.25 70.25 C6.66 70.25 15.57 70.25 24.75 70.25 C33.13571441 72.08136292 40.87707304 73.9464581 48.75 77.25 C48.75 77.58 48.75 77.91 48.75 78.25 C41.15130429 78.37679156 33.55288142 78.46434844 25.95336914 78.5246582 C23.3683045 78.54980001 20.78331093 78.58391815 18.19848633 78.62719727 C14.48240626 78.68785922 10.76726614 78.71621419 7.05078125 78.73828125 C5.89540359 78.76408768 4.74002594 78.7898941 3.54963684 78.81648254 C2.46889389 78.8168602 1.38815094 78.81723785 0.2746582 78.81762695 C-0.67354294 78.82873001 -1.62174408 78.83983307 -2.59867859 78.85127258 C-6.43511379 77.98123725 -7.89518594 76.35365922 -10.25 73.25 C-10.87818909 70.05613708 -10.87818909 70.05613708 -10.88110352 66.41186523 C-10.88825882 65.7445639 -10.89541412 65.07726257 -10.90278625 64.38973999 C-10.91962483 62.19531719 -10.90030534 60.00295143 -10.87890625 57.80859375 C-10.87973532 56.27832368 -10.88219613 54.74805371 -10.88621521 53.2177887 C-10.88906972 50.01576835 -10.87440552 46.81444886 -10.84692383 43.61254883 C-10.81281164 39.51094021 -10.81887149 35.41058204 -10.8375864 31.30891323 C-10.84816011 28.15096128 -10.83921593 24.99329978 -10.82420158 21.83537483 C-10.8190239 20.32312953 -10.81949659 18.81085385 -10.82574654 17.29861259 C-10.83120485 15.18465918 -10.81080988 13.07249018 -10.78344727 10.95874023 C-10.77724869 9.75692612 -10.77105011 8.555112 -10.7646637 7.31687927 C-9.68574838 0.88762646 -5.99811787 -0.26078773 0 0 Z " fill="#05B6AD" transform="translate(185.25,167.75)"/>
<path d="M0 0 C2.64 0 5.28 0 8 0 C8.10141744 7.88359592 8.17147331 15.76702362 8.21972656 23.65112305 C8.23758325 26.33327823 8.26541436 29.0150546 8.30175781 31.69702148 C8.35027542 35.55203066 8.37296994 39.40645998 8.390625 43.26171875 C8.41127014 44.46084396 8.43191528 45.65996918 8.45318604 46.89543152 C8.4554313 55.22465455 8.4554313 55.22465455 6.10058594 59.23364258 C2.83106368 61.98294448 1.01836703 62.12329853 -3.18408203 62.11352539 C-4.26505157 62.11344986 -5.34602112 62.11337433 -6.45974731 62.11329651 C-8.21603958 62.10555458 -8.21603958 62.10555458 -10.0078125 62.09765625 C-11.20356903 62.0962413 -12.39932556 62.09482635 -13.63131714 62.09336853 C-17.46256987 62.08775663 -21.29376484 62.07520208 -25.125 62.0625 C-27.71744707 62.05748653 -30.30989506 62.05292336 -32.90234375 62.04882812 C-39.26824898 62.03778333 -45.63412037 62.02103359 -52 62 C-49.81220817 59.81220817 -48.8173435 59.50595502 -45.89453125 58.74609375 C-44.66573242 58.42415039 -44.66573242 58.42415039 -43.41210938 58.09570312 C-42.12530273 57.76989258 -42.12530273 57.76989258 -40.8125 57.4375 C-39.97396484 57.21642578 -39.13542969 56.99535156 -38.27148438 56.76757812 C-25.22901299 53.39750941 -14.17075321 54 0 54 C0 36.18 0 18.36 0 0 Z " fill="#07B7AE" transform="translate(310,184)"/>
<path d="M0 0 C0 25.08 0 50.16 0 76 C-7.92 79.96 -7.92 79.96 -16 84 C-18.74209759 85.63043641 -21.37542131 87.21858306 -24 89 C-24.59554688 89.39316406 -25.19109375 89.78632813 -25.8046875 90.19140625 C-27.20840392 91.11967033 -28.60514496 92.05847284 -30 93 C-30 90 -30 90 -27.98046875 87.6171875 C-26.59794922 86.25980469 -26.59794922 86.25980469 -25.1875 84.875 C-24.29417969 83.98554688 -23.40085937 83.09609375 -22.48046875 82.1796875 C-20.50787831 80.25173009 -18.61985592 78.75172033 -16.29931641 77.23612976 C-11.96276248 74.25463625 -8.59645356 71.91486763 -6.99153137 66.76239014 C-6.6348321 62.93091718 -6.60310513 59.17891129 -6.70703125 55.33984375 C-6.70510591 53.94021662 -6.69832496 52.54058858 -6.68693542 51.14100647 C-6.67004977 47.48508071 -6.71841279 43.83292327 -6.78112793 40.1776123 C-6.83351691 36.43679416 -6.8231734 32.69618258 -6.81835938 28.95507812 C-6.81806119 21.63551149 -6.88679895 14.3187856 -7 7 C-8.76458406 7.63032875 -10.52814138 8.26353233 -12.29125977 8.89794922 C-13.27344986 9.25025604 -14.25563995 9.60256287 -15.26759338 9.96554565 C-18.31680102 11.11993683 -21.11130313 12.50153052 -23.9375 14.125 C-26.92923431 15.82575028 -29.90570871 17.49234067 -33 19 C-25.08639243 10.26774337 -12.17618687 0 0 0 Z " fill="#17BBB3" transform="translate(286,144)"/>
<path d="M0 0 C5.28519536 0.88086589 8.81815702 2.17273977 13.375 4.6875 C14.03185791 5.04328125 14.68871582 5.3990625 15.36547852 5.765625 C20.25110297 8.4624752 24.67070085 11.46587824 29 15 C28.01 15.495 28.01 15.495 27 16 C24.70302412 14.98706641 22.52510824 13.92422497 20.3125 12.75 C19.10132699 12.11774427 17.88908582 11.48753053 16.67578125 10.859375 C16.13864502 10.57545898 15.60150879 10.29154297 15.0480957 9.99902344 C12.07949116 8.55099271 9.04176238 7.28710035 6 6 C5.89869378 14.20696363 5.8518113 22.41172085 5.87302971 30.61919403 C5.88120368 34.4311208 5.87113897 38.24112559 5.81835938 42.05273438 C5.76803817 45.73650405 5.76697684 49.41739255 5.79904556 53.10133362 C5.80277634 54.50149274 5.78921378 55.90181551 5.75750351 57.30162048 C5.48349192 65.53738223 5.48349192 65.53738223 9.17190552 72.56616211 C11.69375262 74.58352423 14.26947509 76.28230502 17 78 C18.30557564 79.17353515 19.58627571 80.37645456 20.8203125 81.625 C21.65175781 82.46611328 21.65175781 82.46611328 22.5 83.32421875 C23.304375 84.15373047 23.304375 84.15373047 24.125 85 C24.69992188 85.58394531 25.27484375 86.16789062 25.8671875 86.76953125 C27.24959507 88.17497894 28.62554843 89.5867708 30 91 C25.22196931 91 22.03087396 87.98585341 18.10546875 85.43359375 C12.25143738 81.96350665 6.08678488 79.04339244 0 76 C0 50.92 0 25.84 0 0 Z " fill="#03B6AD" transform="translate(207,144)"/>
<path d="M0 0 C1.98 0 3.96 0 6 0 C6 25.08 6 50.16 6 76 C-0.93 76.99 -7.86 77.98 -15 79 C-21.06221142 80.58144646 -27.01697791 82.19011954 -33 84 C-34.33165747 84.33996656 -35.66460823 84.67501122 -37 85 C-29.39353816 76.54000779 -15.05971548 71.63528867 -4 70 C-2.68 70 -1.36 70 0 70 C0 46.9 0 23.8 0 0 Z " fill="#05B6AD" transform="translate(291,157)"/>
<path d="M0 0 C1.98 0 3.96 0 6 0 C6 23.1 6 46.2 6 70 C9.96 70.66 13.92 71.32 18 72 C26.71697328 74.73279993 34.71820534 78.43505124 42 84 C40 85 40 85 37.05859375 84.07421875 C35.86363281 83.61660156 34.66867188 83.15898437 33.4375 82.6875 C22.08075191 78.49059688 12.488384 77.46922165 0 76 C0 50.92 0 25.84 0 0 Z " fill="#06B6AE" transform="translate(196,157)"/>
<path d="M0 0 C3.96 0 7.92 0 12 0 C12 3.96 12 7.92 12 12 C9.72135417 12.1953125 7.44270833 12.390625 5.1640625 12.5859375 C2.79665809 12.82892588 2.79665809 12.82892588 1 15 C0.69309346 17.57685678 0.48985507 20.04103303 0.375 22.625 C0.25125 25.05875 0.1275 27.4925 0 30 C-5.94 30 -11.88 30 -18 30 C-18 24.06 -18 18.12 -18 12 C-10.625 11.625 -10.625 11.625 -8.30712891 11.52197266 C-4.20221481 11.37780092 -4.20221481 11.37780092 -1 9 C-0.53993654 6.79749008 -0.53993654 6.79749008 -0.375 4.375 C-0.189375 2.209375 -0.189375 2.209375 0 0 Z " fill="#07B7AE" transform="translate(328,146)"/>
<path d="M0 0 C3.63 0 7.26 0 11 0 C11 1.32 11 2.64 11 4 C12.69769531 3.98259766 12.69769531 3.98259766 14.4296875 3.96484375 C15.91145669 3.95546546 17.39322765 3.9463653 18.875 3.9375 C19.62136719 3.92912109 20.36773437 3.92074219 21.13671875 3.91210938 C26.7734375 3.88671875 26.7734375 3.88671875 29 5 C29.042721 6.66611905 29.04063832 8.33382885 29 10 C27.44093218 11.55906782 25.93845719 11.12722371 23.77148438 11.12939453 C22.42503845 11.13412277 22.42503845 11.13412277 21.0513916 11.13894653 C19.58735901 11.13591019 19.58735901 11.13591019 18.09375 11.1328125 C16.6011969 11.13424759 16.6011969 11.13424759 15.07849121 11.13571167 C12.97013282 11.1363936 10.86177235 11.13453844 8.75341797 11.13037109 C5.51394973 11.12502303 2.27462015 11.13031567 -0.96484375 11.13671875 C-3.00781281 11.13605797 -5.05078178 11.13477681 -7.09375 11.1328125 C-8.06977173 11.13483673 -9.04579346 11.13686096 -10.0513916 11.13894653 C-10.94902222 11.13579437 -11.84665283 11.13264221 -12.77148438 11.12939453 C-13.56566772 11.12859894 -14.35985107 11.12780334 -15.17810059 11.12698364 C-17 11 -17 11 -18 10 C-18.125 7.5 -18.125 7.5 -18 5 C-17 4 -17 4 -13.18359375 3.90234375 C-11.60153318 3.90901911 -10.01948841 3.92098125 -8.4375 3.9375 C-7.63119141 3.94201172 -6.82488281 3.94652344 -5.99414062 3.95117188 C-3.99606244 3.96299482 -1.99802217 3.98093086 0 4 C0 2.68 0 1.36 0 0 Z " fill="#01B5AC" transform="translate(241,251)"/>
<path d="M0 0 C2.31 0 4.62 0 7 0 C7 2.31 7 4.62 7 7 C4.69 7 2.38 7 0 7 C0 4.69 0 2.38 0 0 Z " fill="#12BAB2" transform="translate(319,138)"/>
<path d="M0 0 C0.66 0.33 1.32 0.66 2 1 C-7.23366834 11.95728643 -7.23366834 11.95728643 -12 14 C-10.41332422 10.09714233 -7.86649519 7.66479018 -4.875 4.75 C-3.96492188 3.85796875 -3.05484375 2.9659375 -2.1171875 2.046875 C-1.41851562 1.37140625 -0.71984375 0.6959375 0 0 Z " fill="#25BFB8" transform="translate(267,223)"/>
<path d="M0 0 C0.66 0.33 1.32 0.66 2 1 C1.67 1.33 1.34 1.66 1 2 C1.66 2.66 2.32 3.32 3 4 C1.04486839 4.696553 -0.91422476 5.38199565 -2.875 6.0625 C-3.96554687 6.44535156 -5.05609375 6.82820312 -6.1796875 7.22265625 C-9 8 -9 8 -11 7 C-9.21475351 5.80286983 -7.4215972 4.61752721 -5.625 3.4375 C-4.62726563 2.77621094 -3.62953125 2.11492187 -2.6015625 1.43359375 C-1.74304688 0.96050781 -0.88453125 0.48742187 0 0 Z " fill="#25BFB8" transform="translate(265,234)"/>
<path d="M0 0 C0.99 0.33 1.98 0.66 3 1 C-0.61186839 3.74501997 -4.30395263 6.37012014 -8 9 C-8.66 8.67 -9.32 8.34 -10 8 C-8.40629329 6.63353852 -6.79967018 5.28212834 -5.1875 3.9375 C-4.29417969 3.18339844 -3.40085937 2.42929688 -2.48046875 1.65234375 C-1.25263672 0.83443359 -1.25263672 0.83443359 0 0 Z " fill="#3CC6BF" transform="translate(263,154)"/>
<path d="M0 0 C4.43458973 1.3937282 6.87378374 3.60582235 10 7 C6.2089881 5.55049545 2.6125362 3.84827434 -1 2 C-0.67 1.34 -0.34 0.68 0 0 Z " fill="#20BEB6" transform="translate(226,153)"/>
</svg>
